<svg width="48" height="48" viewBox="0 0 48 48" fill="none" xmlns="http://www.w3.org/2000/svg">
<path d="M39.0266 6.5102C39.7068 5.82993 40.8095 5.82993 41.4898 6.5102C42.1701 7.19048 42.1701 8.29316 41.4898 8.97343L26.4632 24L41.4898 39.0266C42.1701 39.7068 42.1701 40.8095 41.4898 41.4898C40.8095 42.1701 39.7068 42.1701 39.0266 41.4898L24 26.4632L8.97343 41.4898C8.29316 42.1701 7.19048 42.1701 6.5102 41.4898C5.82993 40.8095 5.82993 39.7068 6.5102 39.0266L21.5368 24L6.5102 8.97343C5.82993 8.29316 5.82993 7.19048 6.5102 6.5102C7.19048 5.82993 8.29316 5.82993 8.97343 6.5102L24 21.5368L39.0266 6.5102Z" fill="#E9E9E9"/>
</svg>
