<svg width="48" height="48" viewBox="0 0 48 48" fill="none" xmlns="http://www.w3.org/2000/svg">
<path d="M16.08 9.45455C16.08 8.65122 16.7247 8 17.52 8C18.3153 8 18.96 8.65122 18.96 9.45455V38.5455C18.96 39.3488 18.3153 40 17.52 40C16.7247 40 16.08 39.3488 16.08 38.5455V9.45455Z" fill="white"/>
<path d="M21.84 13.8182C21.84 13.0149 22.4847 12.3636 23.28 12.3636C24.0753 12.3636 24.72 13.0149 24.72 13.8182V16.7273C24.72 17.5306 24.0753 18.1818 23.28 18.1818C22.4847 18.1818 21.84 17.5306 21.84 16.7273V13.8182Z" fill="white"/>
<path d="M24.72 21.0909C24.72 20.2876 25.3647 19.6364 26.16 19.6364H27.6C28.3953 19.6364 29.04 20.2876 29.04 21.0909V24C29.04 24.8033 28.3953 25.4545 27.6 25.4545H26.16C25.3647 25.4545 24.72 24.8033 24.72 24V21.0909Z" fill="white"/>
<path d="M29.04 28.3636C29.04 27.5603 29.6847 26.9091 30.48 26.9091H34.8C35.5953 26.9091 36.24 27.5603 36.24 28.3636V31.2727C36.24 32.0761 35.5953 32.7273 34.8 32.7273H30.48C29.6847 32.7273 29.04 32.0761 29.04 31.2727V28.3636Z" fill="white"/>
<path d="M36.24 35.6364C36.24 34.833 36.8847 34.1818 37.68 34.1818H40.56C41.3553 34.1818 42 34.833 42 35.6364V38.5455C42 39.3488 41.3553 40 40.56 40H37.68C36.8847 40 36.24 39.3488 36.24 38.5455V35.6364Z" fill="white"/>
<path d="M7.44 12.3636H13.2V18.1818H7.44C6.64471 18.1818 6 17.5306 6 16.7273V13.8182C6 13.0149 6.64471 12.3636 7.44 12.3636Z" fill="white"/>
</svg>
