<svg width="48" height="48" viewBox="0 0 48 48" fill="none" xmlns="http://www.w3.org/2000/svg">
<path fill-rule="evenodd" clip-rule="evenodd" d="M23.2959 15.6973C23.7309 15.4414 24.2691 15.4414 24.7041 15.6973L36.5813 22.6836C37.0103 22.9361 37.2744 23.3991 37.2745 23.9V38.5909C37.2745 39.3691 36.6488 39.9999 35.8772 40H26.096C25.3243 40 24.6987 39.3691 24.6987 38.5909V25.9091C24.6987 25.1309 24.0731 24.5 23.3013 24.5H16.3148C15.5431 24.5 14.9175 25.1309 14.9175 25.9091V38.5909C14.9175 39.3691 14.2919 40 13.5201 40H12.1228C11.3511 40 10.7255 39.3691 10.7255 38.5909V23.9C10.7256 23.399 10.9896 22.9361 11.4187 22.6836L23.2959 15.6973ZM28.8906 24.5C28.1189 24.5 27.4933 25.1309 27.4933 25.9091V30.1364C27.4933 30.9146 28.1189 31.5454 28.8906 31.5455H33.0825C33.8543 31.5455 34.4799 30.9146 34.4799 30.1364V25.9091C34.4799 25.1309 33.8543 24.5 33.0825 24.5H28.8906Z" fill="white"/>
<path d="M23.2877 9.4252C23.7268 9.16296 24.2732 9.16289 24.7123 9.4252L41.315 19.348C42.0997 19.817 42.2356 20.9061 41.5906 21.5566L41.5292 21.6185C41.0803 22.071 40.3853 22.1612 39.8371 21.8387L24.7041 12.9369C24.2691 12.681 23.7309 12.681 23.2959 12.9369L8.16287 21.8387C7.61471 22.1611 6.91966 22.0709 6.47081 21.6185L6.40941 21.5566C5.76438 20.9061 5.90029 19.817 6.68505 19.348L23.2877 9.4252Z" fill="white"/>
<path d="M35.8772 9C36.6488 9.00006 37.2745 9.63091 37.2745 10.4091V12.3562C37.2745 13.4037 36.1813 14.0851 35.2522 13.6167L33.8549 12.9122C33.3815 12.6735 33.0825 12.1854 33.0825 11.6517V10.4091C33.0825 9.63087 33.7081 9 34.4799 9H35.8772Z" fill="white"/>
</svg>
