<svg width="48" height="48" viewBox="0 0 48 48" fill="none" xmlns="http://www.w3.org/2000/svg">
<path d="M25.6341 15C28.0992 15 30.0976 16.8229 30.0976 19.0714V20.9706L39.7959 16.1067C40.7874 15.6096 42 16.2633 42 17.2954V31.8039C42 32.8128 40.836 33.4691 39.8468 33.018L30.0976 28.5714V29.9286C30.0976 32.1771 28.0992 34 25.6341 34H23.4634V15H25.6341Z" fill="white"/>
<path d="M18.4878 31.4976C18.4878 31.2416 18.7062 31.0341 18.9756 31.0341H20.7317C21.0011 31.0341 21.2195 31.2416 21.2195 31.4976V33.5366C21.2195 33.7925 21.0011 34 20.7317 34H18.9756C18.7062 34 18.4878 33.7925 18.4878 33.5366V31.4976Z" fill="white"/>
<path d="M13.0244 26.122C13.0244 25.866 13.2428 25.6585 13.5122 25.6585H18C18.2694 25.6585 18.4878 25.866 18.4878 26.122V28.2537C18.4878 28.5096 18.2694 28.7171 18 28.7171H13.5122C13.2428 28.7171 13.0244 28.5096 13.0244 28.2537V26.122Z" fill="white"/>
<path d="M10.1951 20.7463C10.1951 20.4904 10.4135 20.2829 10.6829 20.2829H12.5366C12.806 20.2829 13.0244 20.4904 13.0244 20.7463V22.7854C13.0244 23.0413 12.806 23.2488 12.5366 23.2488H10.6829C10.4135 23.2488 10.1951 23.0413 10.1951 22.7854V20.7463Z" fill="white"/>
<path d="M6 15.4634C6 15.2075 6.2184 15 6.4878 15H9.70732C9.97672 15 10.1951 15.2075 10.1951 15.4634V17.5024C10.1951 17.7584 9.97672 17.9659 9.70732 17.9659H6.4878C6.2184 17.9659 6 17.7584 6 17.5024V15.4634Z" fill="white"/>
</svg>
