<svg width="48" height="48" viewBox="0 0 48 48" fill="none" xmlns="http://www.w3.org/2000/svg">
<path d="M37.375 14.0043C37.3747 13.391 37.1828 12.4409 36.6915 11.7186C36.2833 11.119 35.6308 10.5893 34.2917 10.5893H12.7083C12.2108 10.5893 11.3872 10.7666 10.7451 11.2555C10.2112 11.6624 9.62529 12.4081 9.625 14.0043V33.9957C9.62529 34.609 9.81724 35.5592 10.3085 36.2814C10.7167 36.881 11.3693 37.4107 12.7083 37.4107H34.2917C34.7891 37.4107 35.6128 37.2333 36.2549 36.7445C36.7887 36.3376 37.3747 35.5918 37.375 33.9957V14.0043ZM42 33.9957C41.9996 36.9667 40.7872 39.0774 39.0732 40.3836C37.4672 41.6075 35.5925 42 34.2917 42H12.7083C9.73176 42 7.68603 40.6272 6.47542 38.8479C5.34872 37.1916 5.00025 35.2861 5 33.9957V14.0043C5.00033 11.0333 6.21285 8.92261 7.92676 7.6164C9.53279 6.3925 11.4074 6 12.7083 6H34.2917C37.2683 6 39.314 7.37272 40.5246 9.15213C41.6513 10.8085 41.9998 12.7139 42 14.0043V33.9957Z" fill="#E9E9E9"/>
</svg>
