<svg width="48" height="48" viewBox="0 0 48 48" fill="none" xmlns="http://www.w3.org/2000/svg">
<path d="M30.3871 20.7475C30.3869 20.2819 30.2423 19.5606 29.8722 19.0123C29.5647 18.5571 29.0733 18.155 28.0645 18.155H11.8065C11.4317 18.155 10.8113 18.2896 10.3276 18.6608C9.92547 18.9696 9.48409 19.5357 9.48387 20.7475V35.9236C9.48409 36.3892 9.62868 37.1105 9.99874 37.6588C10.3062 38.114 10.7978 38.5161 11.8065 38.5161H28.0645C28.4392 38.5161 29.0597 38.3814 29.5433 38.0103C29.9455 37.7015 30.3868 37.1353 30.3871 35.9236V20.7475ZM14.129 10.9945C14.129 10.1956 14.3399 9.0188 15.0363 7.9869C15.7958 6.86177 17.0834 6 18.9194 6H34.1613C36.4919 6 38.5514 6.6279 40.004 8.17742C41.4366 9.70568 41.9999 11.8357 42 14.2447V25.0842C41.9999 25.8831 41.7892 27.0599 41.0927 28.0917C40.3332 29.2166 39.0453 30.0764 37.2097 30.0764C36.2476 30.0764 35.4677 29.2965 35.4677 28.3344C35.4683 27.3729 36.248 26.5925 37.2097 26.5925C37.5514 26.5925 37.7535 26.5204 37.8742 26.4541C37.999 26.3855 38.1089 26.2841 38.2054 26.1411C38.4229 25.8184 38.5161 25.3689 38.5161 25.0842V14.2447C38.5161 12.319 38.063 11.1983 37.4637 10.559C36.8841 9.94075 35.8952 9.48387 34.1613 9.48387H18.9194C18.5772 9.48387 18.3755 9.55814 18.2548 9.6245C18.13 9.69316 18.0201 9.7923 17.9236 9.93523C17.7057 10.2581 17.6129 10.7095 17.6129 10.9945C17.6124 11.9561 16.8327 12.7364 15.871 12.7364C14.9092 12.7364 14.1295 11.9561 14.129 10.9945ZM33.871 35.9236C33.8707 38.179 32.9574 39.7814 31.6663 40.7729C30.4566 41.702 29.0444 42 28.0645 42H11.8065C9.56429 42 8.0233 40.9579 7.11139 39.6071C6.26268 38.3498 6.00019 36.9032 6 35.9236V20.7475C6.00024 18.4921 6.9136 16.8898 8.20464 15.8982C9.41441 14.9691 10.8265 14.6711 11.8065 14.6711H28.0645C30.3067 14.6711 31.8477 15.7132 32.7596 17.064C33.6083 18.3214 33.8708 19.7679 33.871 20.7475V35.9236Z" fill="#E9E9E9"/>
</svg>
