<svg width="48" height="48" viewBox="0 0 48 48" fill="none" xmlns="http://www.w3.org/2000/svg">
<path fill-rule="evenodd" clip-rule="evenodd" d="M11.0924 8.76923C10.9078 8.76923 10.7429 8.92379 10.7429 9.1336V38.8664C10.7429 39.0762 10.9078 39.2308 11.0924 39.2308H14.2694V29.9028C14.2694 28.1808 15.6455 26.7692 17.3618 26.7692H30.6382C32.3545 26.7692 33.7306 28.1808 33.7306 29.9028V39.2308H36.9076C37.0922 39.2308 37.2571 39.0762 37.2571 38.8664V16.4282C37.2571 16.3272 37.217 16.2323 37.1488 16.1645L33.7306 12.7674V16.0202C33.7306 17.7423 32.3545 19.1538 30.6382 19.1538H17.3618C15.6455 19.1538 14.2694 17.7423 14.2694 16.0202V8.76923H11.0924ZM17.0122 8.76923V16.0202C17.0122 16.2301 17.1772 16.3846 17.3618 16.3846H30.6382C30.8228 16.3846 30.9878 16.2301 30.9878 16.0202V10.0415L29.8089 8.86992C29.743 8.80436 29.6562 8.76923 29.5677 8.76923H17.0122ZM33.3213 8.47479L39.0729 14.191C39.6669 14.7813 40 15.588 40 16.4282V38.8664C40 40.5885 38.6239 42 36.9076 42H11.0924C9.37607 42 8 40.5885 8 38.8664V9.1336C8 7.41154 9.37606 6 11.0924 6H29.5677C30.3788 6 31.1559 6.32278 31.7331 6.89642L33.3213 8.47479ZM30.9878 39.2308V29.9028C30.9878 29.693 30.8228 29.5385 30.6382 29.5385H17.3618C17.1772 29.5385 17.0122 29.693 17.0122 29.9028V39.2308H30.9878Z" fill="#D9D9D9"/>
</svg>
